<svg width="241" height="205" viewBox="0 0 241 205" fill="none" xmlns="http://www.w3.org/2000/svg">
<path d="M157.5 47L171.338 98.813L222.783 76.7443L188.595 119.285L238.906 143.579L182.436 144.814L193.729 197.177L157.5 156.175L121.271 197.177L132.564 144.814L76.0935 143.579L126.405 119.285L92.2171 76.7443L143.662 98.813L157.5 47Z" fill="white"/>
<path d="M49.5 0L57.7036 33.7768L88.2007 19.3903L67.9333 47.1227L97.7589 62.9598L64.2823 63.7648L70.9772 97.8999L49.5 71.1712L28.0228 97.8999L34.7177 63.7648L1.24107 62.9598L31.0667 47.1227L10.7993 19.3903L41.2964 33.7768L49.5 0Z" fill="black"/>
</svg>
