<svg width="270" height="327" viewBox="0 0 270 327" fill="none" xmlns="http://www.w3.org/2000/svg">
<path d="M167 0L185.894 163.183L334 184L185.894 204.817L167 368L148.106 204.817L0 184L148.106 163.183L167 0Z" fill="white"/>
<path d="M226.5 163L231.724 276.867C231.794 278.379 232.978 279.603 234.487 279.721L282.833 283.509C286.52 283.798 286.52 289.202 282.833 289.491L234.487 293.279C232.978 293.397 231.794 294.621 231.724 296.133L226.5 410L221.276 296.133C221.206 294.621 220.022 293.397 218.513 293.279L170.167 289.491C166.48 289.202 166.48 283.798 170.167 283.509L218.513 279.721C220.022 279.603 221.206 278.379 221.276 276.867L226.5 163Z" fill="white"/>
<path d="M83.5 26L97.3384 77.813L148.783 55.7443L114.595 98.2854L164.906 122.579L108.436 123.814L119.729 176.177L83.5 135.175L47.2707 176.177L58.5641 123.814L2.09352 122.579L52.4055 98.2854L18.2171 55.7443L69.6616 77.813L83.5 26Z" fill="white"/>
</svg>
