<svg width="172" height="173" viewBox="0 0 172 173" fill="none" xmlns="http://www.w3.org/2000/svg">
<path d="M86 0L108.589 16.5736L136.55 16.52L145.139 43.2831L167.791 59.77L159.1 86.5L167.791 113.23L145.139 129.717L136.55 156.48L108.589 156.426L86 173L63.4109 156.426L35.4505 156.48L26.8609 129.717L4.20914 113.23L12.9 86.5L4.20914 59.77L26.8609 43.2831L35.4505 16.52L63.4109 16.5736L86 0Z" fill="white"/>
<path d="M43.0952 52.8571H49.1905V58.9524H43.0952V52.8571ZM49.1905 52.8571H55.2857V58.9524H49.1905V52.8571ZM49.1905 58.9524H55.2857V65.0476H49.1905V58.9524ZM55.2857 58.9524H61.381V65.0476H55.2857V58.9524ZM61.381 58.9524H67.4762V65.0476H61.381V58.9524ZM67.4762 58.9524H73.5714V65.0476H67.4762V58.9524ZM73.5714 58.9524H79.6667V65.0476H73.5714V58.9524ZM79.6667 58.9524H85.7619V65.0476H79.6667V58.9524ZM85.7619 58.9524H91.8571V65.0476H85.7619V58.9524ZM91.8571 58.9524H97.9524V65.0476H91.8571V58.9524ZM97.9524 58.9524H104.048V65.0476H97.9524V58.9524ZM61.381 52.8571H67.4762V58.9524H61.381V52.8571ZM79.6667 52.8571H85.7619V58.9524H79.6667V52.8571ZM85.7619 52.8571H91.8571V58.9524H85.7619V52.8571ZM104.048 52.8571H110.143V58.9524H104.048V52.8571ZM110.143 52.8571H116.238V58.9524H110.143V52.8571ZM104.048 58.9524H110.143V65.0476H104.048V58.9524ZM110.143 58.9524H116.238V65.0476H110.143V58.9524ZM116.238 58.9524H122.333V65.0476H116.238V58.9524ZM122.333 58.9524H128.429V65.0476H122.333V58.9524ZM61.381 65.0476H67.4762V71.1429H61.381V65.0476ZM61.381 71.1429H67.4762V77.2381H61.381V71.1429ZM61.381 77.2381H67.4762V83.3333H61.381V77.2381ZM61.381 83.3333H67.4762V89.4286H61.381V83.3333ZM61.381 89.4286H67.4762V95.5238H61.381V89.4286ZM67.4762 83.3333H73.5714V89.4286H67.4762V83.3333ZM67.4762 77.2381H73.5714V83.3333H67.4762V77.2381ZM67.4762 71.1429H73.5714V77.2381H67.4762V71.1429ZM67.4762 65.0476H73.5714V71.1429H67.4762V65.0476ZM67.4762 89.4286H73.5714V95.5238H67.4762V89.4286ZM85.7619 65.0476H91.8571V71.1429H85.7619V65.0476ZM91.8571 65.0476H97.9524V71.1429H91.8571V65.0476ZM91.8571 71.1429H97.9524V77.2381H91.8571V71.1429ZM91.8571 77.2381H97.9524V83.3333H91.8571V77.2381ZM91.8571 83.3333H97.9524V89.4286H91.8571V83.3333ZM91.8571 89.4286H97.9524V95.5238H91.8571V89.4286ZM85.7619 89.4286H91.8571V95.5238H85.7619V89.4286ZM85.7619 83.3333H91.8571V89.4286H85.7619V83.3333ZM85.7619 77.2381H91.8571V83.3333H85.7619V77.2381ZM85.7619 71.1429H91.8571V77.2381H85.7619V71.1429ZM110.143 65.0476H116.238V71.1429H110.143V65.0476ZM116.238 65.0476H122.333V71.1429H116.238V65.0476ZM116.238 71.1429H122.333V77.2381H116.238V71.1429ZM116.238 77.2381H122.333V83.3333H116.238V77.2381ZM110.143 83.3333H116.238V89.4286H110.143V83.3333ZM110.143 77.2381H116.238V83.3333H110.143V77.2381ZM110.143 71.1429H116.238V77.2381H110.143V71.1429ZM110.143 89.4286H116.238V95.5238H110.143V89.4286ZM116.238 89.4286H122.333V95.5238H116.238V89.4286ZM116.238 83.3333H122.333V89.4286H116.238V83.3333ZM55.2857 77.2381H61.381V83.3333H55.2857V77.2381ZM49.1905 77.2381H55.2857V83.3333H49.1905V77.2381ZM55.2857 89.4286H61.381V95.5238H55.2857V89.4286ZM49.1905 89.4286H55.2857V95.5238H49.1905V89.4286ZM61.381 95.5238H67.4762V101.619H61.381V95.5238ZM61.381 101.619H67.4762V107.714H61.381V101.619ZM67.4762 95.5238H73.5714V101.619H67.4762V95.5238ZM55.2857 107.714H61.381V113.81H55.2857V107.714ZM49.1905 113.81H55.2857V119.905H49.1905V113.81ZM55.2857 113.81H61.381V119.905H55.2857V113.81ZM61.381 113.81H67.4762V119.905H61.381V113.81ZM67.4762 113.81H73.5714V119.905H67.4762V113.81ZM55.2857 119.905H61.381V126H55.2857V119.905ZM61.381 119.905H67.4762V126H61.381V119.905ZM79.6667 83.3333H85.7619V89.4286H79.6667V83.3333ZM97.9524 83.3333H104.048V89.4286H97.9524V83.3333ZM85.7619 95.5238H91.8571V101.619H85.7619V95.5238ZM85.7619 101.619H91.8571V107.714H85.7619V101.619ZM91.8571 101.619H97.9524V107.714H91.8571V101.619ZM91.8571 95.5238H97.9524V101.619H91.8571V95.5238ZM116.238 95.5238H122.333V101.619H116.238V95.5238ZM110.143 95.5238H116.238V101.619H110.143V95.5238ZM110.143 101.619H116.238V107.714H110.143V101.619ZM110.143 107.714H116.238V113.81H110.143V107.714ZM116.238 107.714H122.333V113.81H116.238V107.714ZM116.238 101.619H122.333V107.714H116.238V101.619ZM85.7619 107.714H91.8571V113.81H85.7619V107.714ZM91.8571 107.714H97.9524V113.81H91.8571V107.714ZM73.5714 107.714H79.6667V113.81H73.5714V107.714ZM79.6667 113.81H85.7619V119.905H79.6667V113.81ZM85.7619 113.81H91.8571V119.905H85.7619V113.81ZM91.8571 113.81H97.9524V119.905H91.8571V113.81ZM97.9524 113.81H104.048V119.905H97.9524V113.81ZM85.7619 119.905H91.8571V126H85.7619V119.905ZM91.8571 119.905H97.9524V126H91.8571V119.905ZM110.143 113.81H116.238V119.905H110.143V113.81ZM116.238 113.81H122.333V119.905H116.238V113.81ZM116.238 119.905H122.333V126H116.238V119.905ZM122.333 113.81H128.429V119.905H122.333V113.81ZM43.0952 113.81H49.1905V119.905H43.0952V113.81Z" fill="black"/>
</svg>
