<svg width="508" height="565" viewBox="0 0 508 565" fill="none" xmlns="http://www.w3.org/2000/svg">
<circle cx="251" cy="282.403" r="251" fill="black"/>
<path d="M400.364 355.676C355.864 352.175 351.364 330.175 298.864 324.676C266.864 321.323 242.364 322.676 205.864 334.676C195.814 337.98 182.97 344.892 171.864 351.176" stroke="white" stroke-width="5"/>
<path d="M62.3636 352.176C64.8636 357.676 72.3636 376.676 81.3636 381.676C104.023 393.185 140.784 369.647 172.864 351.176" stroke="white" stroke-width="8"/>
<path d="M85.3636 382.676C87.8636 388.176 100.864 418.319 114.364 425.176C146.864 441.684 188.864 439.176 238.864 418.676C262.421 409.017 316.364 418.676 341.364 410.176C401.282 389.804 357.864 314.676 394.364 298.676" stroke="white" stroke-width="10"/>
<path d="M204.364 248.676C204.557 238.455 202.166 234.64 193.864 228.676C185.561 222.711 158.864 250.176 157.364 260.676C166.864 248.176 174.85 249.676 177.864 254.676C181.084 260.019 174.044 264.33 171.864 270.176C169.747 275.85 169.864 282.176 166.364 284.176C162.864 286.176 158.19 286.075 154.864 282.176C149.792 276.229 153.864 268.176 157.364 260.676C153.864 268.176 143.294 275.321 141.364 288.176C139.986 297.351 142.131 308.176 147.364 314.676C152.596 321.176 178.096 325.299 190.364 312.176C200.673 301.147 188.704 287.864 193.864 273.676C197.241 264.389 204.177 258.555 204.364 248.676Z" fill="white"/>
<path d="M157.364 260.676C158.864 250.176 185.561 222.711 193.864 228.676C202.166 234.64 204.557 238.455 204.364 248.676C204.177 258.555 197.241 264.389 193.864 273.676C188.704 287.864 200.673 301.147 190.364 312.176C178.096 325.299 152.596 321.176 147.364 314.676C142.131 308.176 139.986 297.351 141.364 288.176C143.294 275.321 153.864 268.176 157.364 260.676ZM157.364 260.676C166.864 248.176 174.85 249.676 177.864 254.676C181.084 260.019 174.044 264.33 171.864 270.176C169.747 275.85 169.864 282.176 166.364 284.176C162.864 286.176 158.19 286.075 154.864 282.176C149.792 276.229 153.864 268.176 157.364 260.676Z" stroke="white" stroke-width="7"/>
<path d="M65.8636 324.676C89.2043 324.45 103.852 318.394 122.364 304.176C137.725 292.376 150.875 266.627 161.864 250.676C172.364 235.434 192.364 223.77 211.864 218.676C261.864 205.613 311.864 224.176 356.364 227.676C377.944 229.373 395.364 219.176 409.864 210.676" stroke="white" stroke-width="8"/>
<path d="M317.864 185.676C353.401 196.025 406.364 211.176 408.864 212.176C411.364 213.176 426.877 193.48 430.864 178.176C438.543 148.699 420.364 122.676 400.864 106.176C366.6 77.1835 333.864 148.676 317.864 185.676Z" fill="white"/>
<path d="M68.8636 322.176C85.5303 320.348 111.294 303.778 129.864 279.676C152.04 250.893 158.641 221.515 191.864 200.676C227.733 178.176 279.364 174.464 317.864 185.676M317.864 185.676C353.401 196.025 406.364 211.176 408.864 212.176C411.364 213.176 426.877 193.48 430.864 178.176C438.543 148.699 420.364 122.676 400.864 106.176C366.6 77.1835 333.864 148.676 317.864 185.676Z" stroke="white" stroke-width="6"/>
<path d="M53.3636 310.176C53.3636 310.176 75.0579 317.176 72.8635 324.033C69.6635 334.033 66.8636 361.767 61.8636 360.533C56.8635 359.299 45.8636 311.676 53.3636 310.176Z" fill="white" stroke="white"/>
<path d="M264.864 165.176C286.364 165.176 305.864 161.676 317.364 157.176C323.047 154.952 333.364 126.176 329.864 115.176C325.364 101.034 308.364 107.676 291.864 115.176C275.364 122.676 268.864 144.676 264.864 165.176Z" fill="white"/>
<path d="M55.8636 313.676C55.8636 313.676 72.1408 296.835 86.8636 288.176C99.6373 280.663 107.312 279.461 118.364 270.176C129.269 261.013 138.364 239.676 138.364 239.676C138.364 239.676 162.734 195.057 189.364 179.676C215.362 164.659 253.864 165.176 264.864 165.176M264.864 165.176C286.364 165.176 305.864 161.676 317.364 157.176C323.047 154.952 333.364 126.176 329.864 115.176C325.364 101.034 308.364 107.676 291.864 115.176C275.364 122.676 268.864 144.676 264.864 165.176Z" stroke="white" stroke-width="10"/>
<path d="M70.8636 328.176C116.36 324.856 160.864 333.676 186.864 317.176C223.002 294.241 235.626 268.577 278.364 252.176C321.667 235.558 358.364 239.676 398.364 239.676" stroke="white" stroke-width="6"/>
<path d="M66.3636 337.176C87.8636 318.176 205.364 446.676 280.864 403.176C320.902 380.107 326.864 304.176 352.364 269.676C366.777 250.176 385.864 251.676 396.364 251.676" stroke="white" stroke-width="6"/>
<path d="M68.3636 336.176C119.864 325.676 191.864 370.676 256.864 354.176C321.864 337.676 335.864 289.176 404.364 269.176" stroke="white" stroke-width="6"/>
<path d="M60.6218 204.648L58.1284 211.617L54.4688 210.308L56.9622 203.338C57.3964 202.125 57.5512 201.074 57.4264 200.185C57.3016 199.297 56.9574 198.559 56.3936 197.97C55.822 197.364 55.0887 196.901 54.1937 196.581C53.3478 196.279 52.4934 196.173 51.6306 196.266C50.76 196.342 49.9641 196.672 49.2429 197.258C48.5217 197.843 47.944 198.743 47.5098 199.957L45.523 205.51L68.6206 213.774L66.9693 218.39L40.1937 208.811L43.8319 198.641C44.5731 196.569 45.5703 194.941 46.8234 193.758C48.0687 192.558 49.4709 191.808 51.0302 191.508C52.5771 191.204 54.172 191.346 55.8148 191.934C57.5435 192.552 58.891 193.463 59.8573 194.666C60.8236 195.869 61.3768 197.319 61.5169 199.014C61.6614 200.698 61.363 202.576 60.6218 204.648Z" fill="white"/>
<path d="M61.7734 168.437L79.1837 187.844L76.6868 192.333L57.038 169.156L58.633 166.288L61.7734 168.437ZM86.7696 174.206L61.0898 169.666L57.5982 168.148L59.2027 165.264L89.2761 169.7L86.7696 174.206ZM77.3533 169.438L80.7499 171.327L73.2305 184.845L69.8339 182.956L77.3533 169.438Z" fill="white"/>
<path d="M85.8883 127.699L108.009 145.569L104.929 149.383L81.0678 146.503L96.9142 159.304L93.8336 163.117L71.7124 145.247L74.7931 141.434L98.709 144.308L82.8322 131.482L85.8883 127.699Z" fill="white"/>
<path d="M121.711 132.375L117.142 136.377L114.611 133.428L119.15 129.451C120.472 128.293 121.326 127.035 121.711 125.676C122.106 124.309 122.057 122.889 121.563 121.417C121.08 119.936 120.186 118.452 118.882 116.963L117.865 115.802C116.853 114.647 115.824 113.739 114.779 113.079C113.743 112.411 112.705 111.997 111.664 111.836C110.632 111.666 109.612 111.746 108.603 112.076C107.603 112.398 106.629 112.975 105.679 113.807L100.889 118.003L98.3154 115.064L103.105 110.869C104.525 109.625 106.033 108.728 107.629 108.178C109.216 107.618 110.826 107.411 112.459 107.556C114.101 107.692 115.698 108.181 117.248 109.021C118.798 109.862 120.246 111.051 121.593 112.589L122.584 113.72C123.931 115.257 124.919 116.85 125.549 118.497C126.178 120.144 126.452 121.791 126.371 123.437C126.281 125.074 125.849 126.655 125.075 128.182C124.302 129.69 123.181 131.088 121.711 132.375ZM100.446 113.198L119.185 134.588L115.497 137.819L96.7582 116.429L100.446 113.198Z" fill="white"/>
<path d="M146.642 113.478L141.472 116.667L139.465 113.339L144.601 110.17C146.097 109.247 147.148 108.148 147.753 106.872C148.369 105.589 148.556 104.181 148.314 102.648C148.083 101.107 147.448 99.495 146.409 97.8106L145.598 96.4974C144.792 95.1897 143.928 94.124 143.006 93.3001C142.096 92.4694 141.141 91.8883 140.141 91.5567C139.152 91.2183 138.132 91.1281 137.083 91.2862C136.044 91.4375 134.987 91.8447 133.912 92.5078L128.493 95.8508L126.442 92.5263L131.861 89.1833C133.468 88.192 135.104 87.5577 136.769 87.2804C138.426 86.9919 140.049 87.0545 141.635 87.4682C143.232 87.8751 144.725 88.6215 146.114 89.7076C147.503 90.7937 148.735 92.2066 149.808 93.9465L150.598 95.2264C151.671 96.9663 152.381 98.7005 152.729 100.429C153.076 102.158 153.073 103.827 152.72 105.437C152.36 107.036 151.672 108.524 150.655 109.901C149.642 111.26 148.304 112.453 146.642 113.478ZM128.852 91.0394L143.783 115.242L139.611 117.816L124.68 93.6133L128.852 91.0394Z" fill="white"/>
<path d="M167.686 75.0862L169.097 101.12L164.338 103.054L163.545 72.6793L166.585 71.4437L167.686 75.0862ZM183.554 95.2431L166.383 75.6158L164.612 72.2454L167.67 71.0024L188.33 93.3015L183.554 95.2431ZM179.202 85.6271L180.666 89.2277L166.336 95.0527L164.872 91.4521L179.202 85.6271Z" fill="white"/>
<path d="M227.403 81.1648L228 85.0053L213.893 87.1998L213.295 83.3593L227.403 81.1648ZM210.873 58.8901L215.244 86.9897L210.4 87.7432L206.029 59.6436L210.873 58.8901Z" fill="white"/>
<path d="M247.616 59.6152L239.137 84.2693L234 84.2728L244.684 55.8281L247.965 55.8259L247.616 59.6152ZM254.742 84.2588L246.21 59.6161L245.836 55.8273L249.137 55.8251L259.898 84.2554L254.742 84.2588ZM254.325 73.7122L254.327 77.599L238.859 77.6093L238.856 73.7226L254.325 73.7122Z" fill="white"/>
<path d="M280.497 74.1763L273.347 72.9976L273.89 69.4647L280.134 70.494C281.187 70.6677 282.105 70.6607 282.889 70.4731C283.687 70.2748 284.327 69.9119 284.81 69.3845C285.295 68.8442 285.607 68.1501 285.747 67.3021C285.902 66.3643 285.848 65.5702 285.586 64.9199C285.323 64.2696 284.842 63.7482 284.141 63.3555C283.453 62.965 282.538 62.6755 281.394 62.487L276.711 61.715L272.721 85.9195L267.884 85.122L272.51 57.0633L282.03 58.6328C283.571 58.8869 284.922 59.2613 286.081 59.7559C287.252 60.2526 288.21 60.8856 288.955 61.6549C289.714 62.4135 290.233 63.3041 290.513 64.3269C290.806 65.3517 290.845 66.5193 290.629 67.8298C290.438 68.9861 289.987 70.0004 289.276 70.8729C288.567 71.7325 287.623 72.3753 286.444 72.8012C285.265 73.2271 283.863 73.3655 282.238 73.2164L280.497 74.1763ZM278.194 86.8218L269.734 85.427L272.544 81.9511L278.826 82.9868C279.918 83.1668 280.86 83.1374 281.652 82.8984C282.445 82.6465 283.075 82.2291 283.541 81.646C284.021 81.0522 284.334 80.3185 284.478 79.4449C284.628 78.5327 284.598 77.7161 284.387 76.9951C284.178 76.2612 283.756 75.6572 283.122 75.1831C282.489 74.6962 281.614 74.3606 280.497 74.1763L275.062 73.2804L275.682 69.7601L282.755 70.9261L283.634 72.4369C285.167 72.7425 286.376 73.2915 287.262 74.0842C288.16 74.8789 288.771 75.8175 289.094 76.9001C289.417 77.9827 289.483 79.1021 289.292 80.2584C288.998 82.0442 288.359 83.4763 287.377 84.5548C286.407 85.6353 285.144 86.3707 283.588 86.7609C282.035 87.1382 280.237 87.1585 278.194 86.8218Z" fill="white"/>
<path d="M442.658 339.372L444.391 332.175L448.17 333.085L446.436 340.282C446.134 341.535 446.093 342.597 446.312 343.466C446.531 344.336 446.953 345.034 447.576 345.559C448.209 346.1 448.988 346.481 449.912 346.704C450.785 346.914 451.646 346.927 452.494 346.743C453.352 346.575 454.108 346.161 454.762 345.502C455.416 344.842 455.894 343.886 456.196 342.633L457.577 336.898L433.728 331.154L434.876 326.388L462.523 333.047L459.994 343.547C459.479 345.687 458.661 347.412 457.542 348.723C456.432 350.049 455.118 350.945 453.6 351.409C452.095 351.877 450.494 351.907 448.797 351.498C447.013 351.068 445.575 350.307 444.486 349.214C443.396 348.121 442.691 346.739 442.37 345.068C442.047 343.41 442.142 341.511 442.658 339.372Z" fill="white"/>
<path d="M445.387 375.498L426 358.066L428.003 353.335L450.019 374.277L448.74 377.298L445.387 375.498ZM419.917 372.437L445.935 374.203L449.569 375.338L448.283 378.377L417.907 377.185L419.917 372.437ZM429.79 376.17L426.211 374.655L432.24 360.41L435.82 361.925L429.79 376.17Z" fill="white"/>
<path d="M425.77 418.582L401.864 403.181L404.519 399.06L428.551 399.371L411.426 388.339L414.081 384.217L437.987 399.618L435.332 403.739L411.246 403.44L428.404 414.494L425.77 418.582Z" fill="white"/>
<path d="M389.652 417.767L393.767 413.298L396.6 415.959L392.512 420.399C391.321 421.692 390.607 423.035 390.369 424.427C390.123 425.829 390.324 427.235 390.972 428.646C391.611 430.066 392.659 431.446 394.115 432.787L395.25 433.832C396.38 434.873 397.5 435.665 398.61 436.209C399.711 436.763 400.788 437.064 401.84 437.113C402.884 437.171 403.89 436.982 404.858 436.546C405.817 436.119 406.724 435.441 407.58 434.512L411.893 429.828L414.766 432.474L410.453 437.158C409.175 438.547 407.771 439.6 406.244 440.318C404.725 441.044 403.147 441.422 401.508 441.453C399.86 441.493 398.221 441.178 396.59 440.508C394.958 439.839 393.391 438.811 391.887 437.427L390.781 436.408C389.277 435.023 388.124 433.546 387.322 431.975C386.52 430.405 386.071 428.797 385.976 427.152C385.89 425.515 386.15 423.896 386.757 422.295C387.364 420.713 388.329 419.203 389.652 417.767ZM412.848 434.558L391.928 415.295L395.248 411.689L416.169 430.951L412.848 434.558Z" fill="white"/>
<path d="M366.887 439.222L371.686 435.498L374.038 438.593L369.27 442.293C367.881 443.371 366.954 444.576 366.489 445.909C366.014 447.251 365.978 448.671 366.383 450.17C366.778 451.676 367.582 453.211 368.795 454.775L369.741 455.994C370.683 457.208 371.657 458.175 372.661 458.896C373.655 459.624 374.667 460.1 375.696 460.322C376.716 460.553 377.739 460.534 378.766 460.264C379.783 460.002 380.79 459.484 381.788 458.71L386.818 454.806L389.213 457.892L384.183 461.796C382.691 462.954 381.133 463.759 379.507 464.213C377.889 464.677 376.27 464.789 374.649 464.547C373.017 464.314 371.452 463.731 369.955 462.8C368.458 461.869 367.082 460.596 365.829 458.981L364.907 457.793C363.654 456.178 362.762 454.529 362.232 452.848C361.701 451.166 361.525 449.506 361.704 447.867C361.891 446.239 362.416 444.686 363.28 443.208C364.142 441.748 365.344 440.42 366.887 439.222ZM386.976 459.629L369.541 437.163L373.414 434.157L390.848 456.623L386.976 459.629Z" fill="white"/>
<path d="M350.072 479.646L345.883 453.913L350.408 451.48L354.447 481.596L351.557 483.149L350.072 479.646ZM332.139 461.302L351.311 478.98L353.432 482.141L350.525 483.704L327.597 463.744L332.139 461.302ZM337.494 470.398L335.654 466.974L349.278 459.649L351.119 463.073L337.494 470.398Z" fill="white"/>
<path d="M290.047 479.992L289.042 476.238L302.834 472.546L303.839 476.301L290.047 479.992ZM308.866 500.37L301.513 472.9L306.249 471.632L313.602 499.103L308.866 500.37Z" fill="white"/>
<path d="M272.256 503.581L278.049 478.161L283.156 477.608L275.577 507.033L272.315 507.386L272.256 503.581ZM262.534 479.841L273.654 503.43L274.431 507.157L271.15 507.512L257.408 480.396L262.534 479.841ZM264.078 490.283L263.659 486.419L279.038 484.753L279.456 488.617L264.078 490.283Z" fill="white"/>
<path d="M238.006 492.622L245.241 493.029L245.079 496.599L238.761 496.244C237.695 496.184 236.783 496.289 236.024 496.56C235.252 496.842 234.654 497.272 234.23 497.848C233.806 498.437 233.57 499.16 233.522 500.018C233.468 500.967 233.607 501.751 233.937 502.37C234.267 502.988 234.802 503.455 235.541 503.77C236.266 504.085 237.208 504.275 238.365 504.34L243.103 504.607L244.481 480.114L249.375 480.389L247.779 508.782L238.145 508.24C236.585 508.152 235.203 507.925 233.997 507.557C232.779 507.188 231.759 506.662 230.937 505.976C230.101 505.303 229.489 504.473 229.101 503.487C228.7 502.499 228.537 501.342 228.612 500.016C228.677 498.846 229.017 497.789 229.631 496.846C230.244 495.915 231.114 495.175 232.24 494.625C233.367 494.076 234.746 493.788 236.377 493.763L238.006 492.622ZM238.943 479.803L247.503 480.284L245.081 484.041L238.724 483.683C237.619 483.621 236.686 483.751 235.925 484.073C235.162 484.409 234.581 484.891 234.18 485.521C233.766 486.163 233.534 486.925 233.484 487.809C233.432 488.732 233.55 489.541 233.837 490.235C234.123 490.943 234.607 491.498 235.289 491.902C235.969 492.318 236.875 492.558 238.006 492.622L243.506 492.931L243.266 496.497L236.109 496.095L235.073 494.687C233.516 494.547 232.255 494.131 231.29 493.437C230.312 492.743 229.604 491.875 229.167 490.834C228.73 489.792 228.545 488.686 228.61 487.516C228.712 485.709 229.194 484.217 230.055 483.039C230.904 481.861 232.081 480.995 233.586 480.44C235.09 479.899 236.876 479.686 238.943 479.803Z" fill="white"/>
</svg>
